<?xml version="1.0" encoding="iso-8859-1"?>
<!-- Uploaded to: SVG Repo, www.svgrepo.com, Generator: SVG Repo Mixer Tools -->
<svg fill="#000000" height="800px" width="800px" version="1.1" id="Capa_1" xmlns="http://www.w3.org/2000/svg" xmlns:xlink="http://www.w3.org/1999/xlink" 
	 viewBox="0 0 612.001 612.001" xml:space="preserve">
<path d="M591.86,179.158L432.915,20.212c33.164-33.164,95.625-24.465,139.517,19.426C616.325,83.532,625.026,145.993,591.86,179.158
	z M462.818,84.489l-47.094-47.094L80.181,372.939l47.094,47.094L462.818,84.489z M509.918,131.591l-29.434-29.435L144.939,437.702
	l29.434,29.435L509.918,131.591z M192.03,484.789l47.094,47.094l335.544-335.544l-47.094-47.094L192.03,484.789z M25.219,517.021
	c2.26,17.493,10.2,33.998,23.018,46.814c12.819,12.819,29.32,20.759,46.816,23.016l127.422-38.312L63.53,389.597L25.219,517.021z
	 M12.882,558.053L0.513,599.198l0.004,0.004c-1.016,3.117-0.671,6.378,2.289,9.337c2.96,2.958,6.947,4.031,10.064,3.016l0.005,0.005
	l41.18-12.382c-8.5-4.723-16.423-10.626-23.48-17.682C23.524,574.446,17.602,566.544,12.882,558.053z"/>
</svg>